<svg xmlns="http://www.w3.org/2000/svg" width="1400" height="360" viewBox="0 0 1400 360">
<defs><linearGradient id="g" x1="0" x2="1"><stop stop-color="#11100e"/><stop offset=".5" stop-color="#1b1714"/><stop offset="1" stop-color="#0b0b09"/></linearGradient><filter id="n"><feTurbulence baseFrequency=".8" numOctaves="2"/><feColorMatrix values="0 0 0 0 .5 0 0 0 0 .48 0 0 0 .44 0 0 0 0 .035 0"/></filter><style>
@keyframes slide{0%,18%{transform:translateX(0)}25%,43%{transform:translateX(-180px)}50%,68%{transform:translateX(-360px)}75%,93%{transform:translateX(-540px)}100%{transform:translateX(0)}} .s{animation:slide 22s ease-in-out infinite}
</style></defs>
<rect width="1400" height="360" fill="url(#g)"/>
<g class="s">
<g transform="translate(60 40)"><rect width="300" height="240" fill="#0b0b09" stroke="#e0ddd7" stroke-opacity=".15"/><circle cx="150" cy="120" r="70" fill="none" stroke="#732626" stroke-opacity=".55"/><path d="M40 190L260 50" stroke="#e0ddd7" stroke-opacity=".18"/><text x="22" y="218" fill="#e0ddd7" font-family="Georgia" font-size="24">ASTERIA</text><text x="22" y="240" fill="#77736d" font-family="monospace" font-size="10">01 / SYSTEMS</text></g>
<g transform="translate(400 40)"><rect width="300" height="240" fill="#0b0b09" stroke="#e0ddd7" stroke-opacity=".15"/><path d="M30 175C95 30 205 210 270 60" fill="none" stroke="#732626" stroke-width="2" stroke-opacity=".65"/><circle cx="150" cy="120" r="42" fill="none" stroke="#e0ddd7" stroke-opacity=".13"/><text x="22" y="218" fill="#e0ddd7" font-family="Georgia" font-size="24">FATHOM</text><text x="22" y="240" fill="#77736d" font-family="monospace" font-size="10">02 / PHILOSOPHY</text></g>
<g transform="translate(740 40)"><rect width="300" height="240" fill="#0b0b09" stroke="#e0ddd7" stroke-opacity=".15"/><path d="M40 55H260V185H40Z" fill="none" stroke="#e0ddd7" stroke-opacity=".14"/><path d="M40 185L260 55" stroke="#732626" stroke-opacity=".6"/><path d="M40 55L260 185" stroke="#e0ddd7" stroke-opacity=".1"/><text x="22" y="218" fill="#e0ddd7" font-family="Georgia" font-size="24">SAMVEDNA</text><text x="22" y="240" fill="#77736d" font-family="monospace" font-size="10">03 / VISION</text></g>
<g transform="translate(1080 40)"><rect width="300" height="240" fill="#0b0b09" stroke="#e0ddd7" stroke-opacity=".15"/><rect x="45" y="55" width="210" height="130" fill="none" stroke="#732626" stroke-opacity=".55"/><path d="M45 120H255" stroke="#e0ddd7" stroke-opacity=".14"/><text x="22" y="218" fill="#e0ddd7" font-family="Georgia" font-size="21">FRAME INTERPOLATION</text><text x="22" y="240" fill="#77736d" font-family="monospace" font-size="10">04 / MOTION</text></g>
</g>
<g fill="#55514c"><circle cx="70" cy="315" r="3"/><circle cx="90" cy="315" r="3"/><circle cx="110" cy="315" r="3"/><circle cx="130" cy="315" r="3"/><circle cx="1270" cy="315" r="3"/><circle cx="1290" cy="315" r="3"/><circle cx="1310" cy="315" r="3"/></g>
<rect width="1400" height="360" filter="url(#n)" opacity=".35"/>
</svg>